<?xml version="1.0" encoding="UTF-8" standalone="no"?>
<!-- Created with Inkscape (http://www.inkscape.org/) -->

<svg
   width="1210.3805"
   height="582.61273"
   viewBox="0 0 320.2465 154.14962"
   version="1.1"
   id="svg1"
   inkscape:version="1.3.2 (091e20e, 2023-11-25, custom)"
   sodipodi:docname="poster-ideas.svg"
   xml:space="preserve"
   inkscape:export-filename="rabbitball-poster-v9.png"
   inkscape:export-xdpi="96"
   inkscape:export-ydpi="96"
   xmlns:inkscape="http://www.inkscape.org/namespaces/inkscape"
   xmlns:sodipodi="http://sodipodi.sourceforge.net/DTD/sodipodi-0.dtd"
   xmlns:xlink="http://www.w3.org/1999/xlink"
   xmlns="http://www.w3.org/2000/svg"
   xmlns:svg="http://www.w3.org/2000/svg"><sodipodi:namedview
     id="namedview1"
     pagecolor="#ffffff"
     bordercolor="#999999"
     borderopacity="1"
     inkscape:showpageshadow="2"
     inkscape:pageopacity="0"
     inkscape:pagecheckerboard="0"
     inkscape:deskcolor="#d1d1d1"
     inkscape:document-units="px"
     inkscape:zoom="0.35355339"
     inkscape:cx="787.71696"
     inkscape:cy="394.56558"
     inkscape:window-width="1920"
     inkscape:window-height="991"
     inkscape:window-x="-9"
     inkscape:window-y="-9"
     inkscape:window-maximized="1"
     inkscape:current-layer="layer1"
     inkscape:export-bgcolor="#ffffff00"
     showguides="false" /><defs
     id="defs1"><linearGradient
       id="linearGradient145"
       inkscape:collect="always"><stop
         style="stop-color:#ffffff;stop-opacity:0.75308645;"
         offset="0"
         id="stop145" /><stop
         style="stop-color:#ffffff;stop-opacity:0.1;"
         offset="0.75340134"
         id="stop147" /><stop
         style="stop-color:#ffffff;stop-opacity:0;"
         offset="1"
         id="stop146" /></linearGradient><linearGradient
       id="linearGradient140"
       inkscape:collect="always"><stop
         style="stop-color:#ffffff;stop-opacity:1;"
         offset="0"
         id="stop140" /><stop
         style="stop-color:#f2f2f2;stop-opacity:1;"
         offset="1"
         id="stop141" /></linearGradient><linearGradient
       id="linearGradient133"
       inkscape:collect="always"><stop
         style="stop-color:#ff6b4c;stop-opacity:0.96018738;"
         offset="0"
         id="stop133" /><stop
         style="stop-color:#ff9580;stop-opacity:1;"
         offset="1"
         id="stop134" /></linearGradient><linearGradient
       id="linearGradient129"
       inkscape:collect="always"><stop
         style="stop-color:#ff7ef8;stop-opacity:1;"
         offset="0"
         id="stop128" /><stop
         style="stop-color:#ff8cf8;stop-opacity:1;"
         offset="1"
         id="stop129" /></linearGradient><linearGradient
       id="linearGradient16"
       inkscape:collect="always"><stop
         style="stop-color:#ffffff;stop-opacity:0.50304878;"
         offset="0"
         id="stop16" /><stop
         style="stop-color:#ffffff;stop-opacity:0;"
         offset="0.50103521"
         id="stop17" /></linearGradient><linearGradient
       inkscape:collect="always"
       xlink:href="#linearGradient129"
       id="linearGradient15-7"
       x1="141.5806"
       y1="12.728503"
       x2="141.55208"
       y2="41.804165"
       gradientUnits="userSpaceOnUse"
       gradientTransform="matrix(0.48106263,0,0,0.48106263,6.1709218,243.06485)" /><linearGradient
       inkscape:collect="always"
       xlink:href="#linearGradient16"
       id="linearGradient17-6"
       x1="118.7906"
       y1="16.169659"
       x2="141.55208"
       y2="40.057068"
       gradientUnits="userSpaceOnUse"
       gradientTransform="matrix(0.5164797,0,0,0.5164797,8.2359595,242.61505)" /><linearGradient
       inkscape:collect="always"
       xlink:href="#linearGradient133"
       id="linearGradient134"
       x1="101.6"
       y1="234.95"
       x2="102.44791"
       y2="285.00845"
       gradientUnits="userSpaceOnUse"
       gradientTransform="matrix(1.6333693,0,0,1.718768,12.581085,-295.32982)" /><linearGradient
       inkscape:collect="always"
       xlink:href="#linearGradient140"
       id="linearGradient141"
       x1="101.6"
       y1="234.95"
       x2="102.44791"
       y2="285.00845"
       gradientUnits="userSpaceOnUse"
       gradientTransform="matrix(1.6333693,0,0,1.718768,12.581085,-295.32982)" /><linearGradient
       inkscape:collect="always"
       xlink:href="#linearGradient145"
       id="linearGradient146"
       x1="106.70976"
       y1="238.74139"
       x2="165.09999"
       y2="241.82916"
       gradientUnits="userSpaceOnUse"
       gradientTransform="matrix(2.2872785,0.61287441,-0.64491779,2.406866,106.34141,-539.11923)" /></defs><g
     inkscape:label="Layer 1"
     inkscape:groupmode="layer"
     id="layer1"
     transform="translate(-19.793421,-65.800193)"><g
       id="g11"
       transform="matrix(0.98694116,0,0,0.98694116,2.3495124,28.125989)"><path
         id="path114"
         style="font-weight:900;font-size:21.1667px;font-family:Nunito;-inkscape-font-specification:'Nunito, Heavy';fill:url(#linearGradient141);fill-opacity:1;stroke:url(#linearGradient134);stroke-width:13.2995;stroke-linecap:round;stroke-linejoin:bevel;stroke-miterlimit:6.2;stroke-dasharray:none;stroke-opacity:0.960187;paint-order:stroke fill markers"
         d="m 227.61644,116.262 c -1.95593,0 -3.46914,0.58189 -4.54024,1.74532 -1.07109,1.16341 -1.60712,2.85839 -1.60712,5.08404 v 41.19994 c 0,2.22566 0.51256,3.91974 1.53706,5.08318 1.07113,1.16341 2.60779,1.7453 4.6103,1.7453 1.95587,0 3.44649,-0.58189 4.47102,-1.7453 0.87197,-0.94715 1.38253,-2.25248 1.54463,-3.90364 0.75118,1.47464 1.86271,2.72713 3.34504,3.75175 2.09564,1.36574 4.4703,2.04908 7.12478,2.04908 2.98043,0 5.5883,-0.78387 7.82366,-2.35197 2.28189,-1.56806 4.05179,-3.81913 5.30918,-6.75296 1.25734,-2.93381 1.88648,-6.39939 1.88648,-10.39547 0,-4.09724 -0.62914,-7.58682 -1.88648,-10.47006 -1.25739,-2.88325 -3.02729,-5.10938 -5.30918,-6.6775 -2.23536,-1.56806 -4.84323,-2.35193 -7.82366,-2.35193 -2.56134,0 -4.86637,0.65753 -6.91545,1.97268 -1.42221,0.91286 -2.51098,2.01331 -3.28258,3.29166 v -14.44476 c 0,-2.22565 -0.55948,-3.92063 -1.67716,-5.08404 -1.07109,-1.16343 -2.60782,-1.74532 -4.61028,-1.74532 z m 72.58384,3.76686 c -1.95591,0 -3.46913,0.5819 -4.54024,1.7453 -1.07109,1.16343 -1.60708,2.8575 -1.60708,5.08317 v 32.47517 c 0,5.26067 1.04767,9.20582 3.14329,11.83612 2.14219,2.57977 5.44882,3.86989 9.91949,3.86989 0.6054,0 1.25717,-0.0507 1.95568,-0.15195 0.69855,-0.10111 1.23457,-0.17763 1.60711,-0.22827 1.35054,-0.25293 2.35125,-0.80902 3.00319,-1.66892 0.65201,-0.91049 0.97827,-2.25045 0.97827,-4.02087 0,-2.02333 -0.20969,-3.36417 -0.62883,-4.02176 -0.37255,-0.65759 -0.95469,-0.9868 -1.74639,-0.9868 -0.4191,0.0506 -0.815,0.12702 -1.18758,0.22827 -0.32597,0.0507 -0.65144,0.0754 -0.97743,0.0754 -1.0711,0 -1.95604,-0.42975 -2.6546,-1.28967 -0.652,-0.85992 -0.97826,-2.22567 -0.97826,-4.09725 v -32.01951 c 0,-2.22565 -0.55867,-3.91972 -1.67632,-5.08316 -1.07112,-1.1634 -2.60781,-1.74531 -4.6103,-1.74531 z m -266.602778,4.02532 c -1.700813,-0.007 -3.098535,0.47558 -4.193317,1.45041 -1.204757,1.11798 -1.892291,2.81216 -2.062063,5.08138 l -2.987139,39.93783 c -0.165999,2.21881 0.260538,4.00464 1.280447,5.35759 1.023682,1.30255 2.556583,2.03885 4.599323,2.20808 2.135582,0.17692 3.782818,-0.29576 4.941155,-1.41757 1.162109,-1.17221 1.826009,-2.8679 1.992008,-5.08671 l 1.012868,-13.53968 3.830382,0.31797 c 1.114219,0.0922 2.072338,0.39975 2.874044,0.92284 0.851917,0.47649 1.514509,1.29232 1.988619,2.44786 l 5.392748,13.15688 c 0.753816,1.7876 1.657282,3.1315 2.711132,4.03065 1.100287,0.90303 2.555749,1.4293 4.366372,1.5792 1.810606,0.15006 3.212478,-0.16551 4.205142,-0.94591 1.042808,-0.82694 1.638563,-1.91889 1.786889,-3.27656 0.152067,-1.40812 -0.08918,-2.87442 -0.722521,-4.39837 l -2.972814,-7.0958 c -0.862925,-2.20254 -2.022633,-3.87133 -3.47924,-5.00678 -0.692074,-0.56489 -1.44754,-1.01051 -2.262951,-1.34386 0.95611,-0.207 1.862302,-0.47697 2.706085,-0.82689 2.701708,-1.14616 4.817867,-2.89871 6.349069,-5.25814 1.581413,-2.40596 2.498909,-5.29907 2.751656,-8.6777 0.392352,-5.24442 -0.834832,-9.45512 -3.680128,-12.63372 -2.795103,-3.2252 -6.977638,-5.06932 -12.548736,-5.5308 l -17.131177,-1.41847 c -0.255344,-0.0211 -0.504874,-0.0327 -0.747853,-0.0337 z m 287.419158,0.54179 c -1.95593,0 -3.46915,0.58189 -4.54023,1.74531 -1.07114,1.16342 -1.60711,2.85749 -1.60711,5.08317 v 32.47427 c 0,5.26069 1.04848,9.20671 3.14414,11.83702 2.14218,2.57975 5.44794,3.86902 9.91864,3.86902 0.60539,0 1.25799,-0.0507 1.95655,-0.15194 0.69854,-0.10111 1.23369,-0.17673 1.60625,-0.22739 1.35048,-0.2529 2.35205,-0.809 3.00405,-1.66891 0.65196,-0.91048 0.97742,-2.25135 0.97742,-4.02177 0,-2.02331 -0.20971,-3.36327 -0.62883,-4.02086 -0.37254,-0.65759 -0.95467,-0.98681 -1.74637,-0.98681 -0.4191,0.0506 -0.81422,0.12616 -1.18676,0.22739 -0.326,0.0507 -0.6523,0.0764 -0.97827,0.0764 -1.07113,0 -1.95604,-0.42975 -2.6546,-1.28965 -0.65194,-0.85994 -0.97742,-2.22568 -0.97742,-4.09727 v -32.01952 c 0,-2.22568 -0.55951,-3.91975 -1.67717,-5.08317 -1.07111,-1.16342 -2.60779,-1.74531 -4.61029,-1.74531 z m -116.88218,0.63772 c -2.04138,0 -3.59555,0.63023 -4.66261,1.89008 -1.06714,1.25988 -1.60122,3.07347 -1.60122,5.44199 v 4.21806 h -1.91854 c -1.83208,0 -3.23569,0.45741 -4.21021,1.37139 -0.9745,0.91392 -1.46194,2.20529 -1.46194,3.8743 0,1.74845 0.48744,3.0794 1.46194,3.99336 0.9745,0.91397 2.37813,1.37136 4.21021,1.37136 h 1.91854 v 20.1923 c 0,2.36853 0.55693,4.18218 1.67042,5.44199 1.0671,1.25985 2.59845,1.89008 4.59341,1.89008 1.94863,0 3.45716,-0.63025 4.52421,-1.89008 1.06711,-1.25981 1.60034,-3.07346 1.60034,-5.44199 v -20.1923 h 4.17055 c 1.83207,0 3.23487,-0.47716 4.20935,-1.43089 0.9745,-0.91395 1.46108,-2.22512 1.46108,-3.93383 0,-1.66901 -0.48658,-2.96038 -1.46108,-3.8743 -0.97448,-0.91398 -2.37728,-1.37139 -4.20935,-1.37139 h -4.17055 v -4.21806 c 0,-2.36852 -0.53323,-4.18211 -1.60034,-5.44199 -1.06705,-1.25985 -2.57558,-1.89008 -4.52421,-1.89008 z m -59.68313,3.8157 c -1.95593,0 -3.46913,0.58191 -4.54023,1.74531 -1.0711,1.16342 -1.60711,2.85751 -1.60711,5.08315 v 41.19995 c 0,2.22567 0.51251,3.92064 1.53705,5.08407 1.07109,1.16339 2.60779,1.74529 4.61029,1.74529 1.95591,0 3.44649,-0.5819 4.47102,-1.74529 0.872,-0.94715 1.38255,-2.25248 1.54464,-3.90365 0.75118,1.47443 1.86287,2.72729 3.34505,3.75176 2.09562,1.36573 4.4703,2.04907 7.12477,2.04907 2.98043,0 5.58829,-0.78476 7.82366,-2.35285 2.28186,-1.56804 4.05178,-3.81824 5.30916,-6.75208 1.25739,-2.93383 1.8865,-6.39938 1.8865,-10.39546 0,-4.09725 -0.62911,-7.58773 -1.8865,-10.47096 -1.25738,-2.88325 -3.0273,-5.10852 -5.30916,-6.67659 -2.23537,-1.56809 -4.84323,-2.35194 -7.82366,-2.35194 -2.56134,0 -4.86639,0.65752 -6.91544,1.97268 -1.42212,0.91276 -2.511,2.01253 -3.28259,3.29077 v -14.44477 c 0,-2.22564 -0.55947,-3.91973 -1.67715,-5.08315 -1.0711,-1.1634 -2.6078,-1.74531 -4.6103,-1.74531 z m 131.92515,1.39538 c -1.58338,0 -3.32978,0.1521 -5.23913,0.45563 -1.86276,0.30351 -3.91198,0.91032 -6.14734,1.8208 -1.21081,0.50585 -2.11842,1.21406 -2.7238,2.12457 -0.55882,0.91049 -0.86163,1.87142 -0.90823,2.88309 0,1.01168 0.23321,1.94768 0.6989,2.80759 0.51225,0.85992 1.21012,1.46673 2.09498,1.82082 0.88481,0.35408 1.95598,0.27844 3.21335,-0.22739 1.7231,-0.70816 3.28329,-1.18861 4.68036,-1.44154 1.3971,-0.30348 2.65447,-0.45565 3.77213,-0.45565 2.0956,0 3.5627,0.37994 4.40097,1.13867 0.88481,0.75875 1.32687,2.048 1.32687,3.86899 v 1.06229 h -2.65375 c -4.79667,0 -8.63925,0.35413 -11.52658,1.06229 -2.88733,0.65759 -4.98268,1.77066 -6.28661,3.33872 -1.30393,1.56808 -1.9557,3.71772 -1.9557,6.44922 0,2.37741 0.55865,4.50214 1.67631,6.37371 1.16425,1.821 2.74796,3.26238 4.75041,4.32464 2.04908,1.06222 4.40028,1.59341 7.05472,1.59341 1.72309,0 3.25979,-0.32831 4.61028,-0.98589 1.35052,-0.65759 2.44516,-1.56868 3.28343,-2.73209 0.52111,-0.72324 0.92494,-1.53449 1.21208,-2.43368 0.10927,1.82202 0.5898,3.24095 1.44251,4.25537 1.02453,1.16341 2.49162,1.74441 4.40096,1.74441 1.86282,0 3.28291,-0.581 4.26086,-1.74441 0.97798,-1.16342 1.46698,-2.85838 1.46698,-5.08405 v -15.32674 c 0,-3.84433 -0.62909,-6.98069 -1.88649,-9.40869 -1.2108,-2.47856 -3.07298,-4.299 -5.58773,-5.46242 -2.46816,-1.21399 -5.61204,-1.82167 -9.43074,-1.82167 z m -169.99594,2.25778 c -1.95593,0 -3.46914,0.5819 -4.54024,1.7453 -1.0711,1.16344 -1.60626,2.85839 -1.60626,5.08405 v 41.19994 c 0,2.22568 0.51169,3.91975 1.53621,5.08318 1.07109,1.16341 2.6078,1.7453 4.61029,1.7453 1.95593,0 3.4465,-0.58189 4.47104,-1.7453 0.87214,-0.94729 1.38261,-2.25294 1.54463,-3.90452 0.75118,1.47506 1.86238,2.72779 3.34505,3.75263 2.09563,1.36574 4.47114,2.04908 7.12562,2.04908 2.98043,0 5.58829,-0.78388 7.82364,-2.35196 2.28191,-1.56806 4.05097,-3.81912 5.30834,-6.75296 1.25737,-2.93384 1.88648,-6.39852 1.88648,-10.39458 0,-4.09726 -0.62911,-7.58772 -1.88648,-10.47098 -1.25737,-2.88323 -3.02643,-5.10938 -5.30834,-6.67746 -2.23534,-1.56808 -4.84321,-2.35195 -7.82364,-2.35195 -2.56134,0 -4.86723,0.65754 -6.91631,1.97268 -1.42221,0.91284 -2.51096,2.01332 -3.28259,3.29167 V 139.5319 c 0,-2.22566 -0.55949,-3.92061 -1.67715,-5.08405 -1.07111,-1.1634 -2.60781,-1.7453 -4.61029,-1.7453 z m -66.496433,2.57578 8.49637,0.70346 c 2.460574,0.20384 4.299062,0.91458 5.515987,2.13166 1.220698,1.16664 1.752049,2.8089 1.593597,4.92683 -0.165983,2.21881 -0.938666,3.80324 -2.317801,4.75453 -1.379152,0.95126 -3.29934,1.32561 -5.759913,1.12178 l -8.495554,-0.70432 z m 143.483793,5.36559 c -1.95596,0 -3.47,0.63263 -4.54107,1.8972 -1.07111,1.26459 -1.60628,3.08503 -1.60628,5.46242 v 23.9769 c 0,2.37741 0.53516,4.19873 1.60628,5.4633 1.07107,1.26459 2.58511,1.8972 4.54107,1.8972 2.04904,0 3.6084,-0.63261 4.67949,-1.8972 1.0711,-1.26457 1.60712,-3.08589 1.60712,-5.4633 v -23.9769 c 0,-2.37739 -0.55864,-4.19783 -1.67632,-5.46242 -1.07109,-1.26457 -2.60784,-1.8972 -4.61029,-1.8972 z m 56.82257,1.56767 c 1.86277,0 3.39946,0.75895 4.6103,2.27646 1.21081,1.4669 1.81644,3.89414 1.81644,7.28322 0,2.22567 -0.27935,4.04697 -0.83817,5.46331 -0.55883,1.36575 -1.3272,2.4032 -2.30512,3.11136 -0.93144,0.65758 -2.02606,0.98591 -3.28345,0.98591 -1.90934,0 -3.4695,-0.75896 -4.68034,-2.27646 -1.2108,-1.5175 -1.81644,-3.94563 -1.81644,-7.28412 0,-2.27623 0.27935,-4.09667 0.83817,-5.46242 0.55883,-1.41631 1.3272,-2.45377 2.30514,-3.11135 0.97796,-0.65758 2.09608,-0.98591 3.35347,-0.98591 z m -146.448974,3.98625 c -1.816748,0 -3.210617,0.5477 -4.182357,1.64227 -0.79011,0.85289 -1.268899,2.01317 -1.44336,3.47285 -0.703263,-1.26019 -1.718532,-2.339 -3.05636,-3.22948 -1.858988,-1.23734 -3.950222,-1.85634 -6.273951,-1.85634 -2.703995,0 -5.070616,0.7381 -7.098607,2.21339 -2.07023,1.47534 -3.675506,3.5687 -4.816251,6.28135 -1.14073,2.71265 -1.710922,5.99704 -1.710922,9.85189 0,3.75963 0.570192,7.01968 1.710922,9.77995 1.140745,2.76025 2.746021,4.87796 4.816251,6.35326 2.027991,1.47533 4.394612,2.21251 7.098607,2.21251 2.408223,0 4.56262,-0.64243 6.463863,-1.92739 1.344671,-0.96388 2.352917,-2.14252 3.034424,-3.5297 0.147003,1.55355 0.610863,2.78156 1.401986,3.67269 0.929501,1.0946 2.281262,1.64229 4.055755,1.64229 1.816728,0 3.211446,-0.54769 4.183192,-1.64229 0.929503,-1.09458 1.393556,-2.68896 1.393556,-4.78293 v -23.7291 c 0,-2.094 -0.48513,-3.68836 -1.456873,-4.78295 -0.971734,-1.09457 -2.345397,-1.64227 -4.119875,-1.64227 z m 185.150304,6.4785 h 2.65375 v 1.36605 c 0,1.31517 -0.27934,2.47807 -0.83815,3.48974 -0.55883,0.96106 -1.30368,1.72004 -2.23509,2.27645 -0.8848,0.55642 -1.90903,0.83489 -3.07326,0.83489 -1.44367,0 -2.56177,-0.37991 -3.35347,-1.13866 -0.74513,-0.75872 -1.11756,-1.71967 -1.11756,-2.88309 0,-0.9105 0.27933,-1.64365 0.83817,-2.20006 0.55883,-0.60698 1.42028,-1.03675 2.58453,-1.28966 1.2108,-0.30353 2.72487,-0.45566 4.54108,-0.45566 z m -121.86639,2.32265 c 1.86277,0 3.39948,0.75804 4.61029,2.27557 1.2108,1.46689 1.81643,3.89504 1.81643,7.2841 0,2.22566 -0.27934,4.04698 -0.83817,5.4633 -0.55882,1.36574 -1.32719,2.40231 -2.30515,3.11048 -0.93138,0.65757 -2.02605,0.98678 -3.2834,0.98678 -1.90938,0 -3.46955,-0.75896 -4.68035,-2.27644 -1.21081,-1.5175 -1.81644,-3.94561 -1.81644,-7.28412 0,-2.27623 0.27934,-4.09666 0.83817,-5.46241 0.55883,-1.41636 1.32719,-2.45379 2.30515,-3.11138 0.97795,-0.65757 2.09607,-0.98588 3.35347,-0.98588 z m -74.691496,0.57998 c 1.140745,0 2.154757,0.30948 3.042019,0.92817 0.887213,0.61868 1.58458,1.59407 2.091596,2.92663 0.50698,1.28492 0.760496,2.99842 0.760496,5.14 0,3.14096 -0.549123,5.42471 -1.647612,6.85243 -1.098491,1.4277 -2.514262,2.14234 -4.246499,2.14234 -1.14073,0 -2.13372,-0.30948 -2.978711,-0.92817 -0.887262,-0.66624 -1.583764,-1.64164 -2.090762,-2.9266 -0.506997,-1.33254 -0.760496,-3.04601 -0.760496,-5.14 0,-3.18858 0.549123,-5.47323 1.647612,-6.85335 1.09849,-1.42773 2.492375,-2.14145 4.182357,-2.14145 z m 36.620686,3.07318 c 1.86277,0 3.39947,0.75893 4.61031,2.27646 1.21078,1.46689 1.81643,3.89501 1.81643,7.2841 0,2.22566 -0.27935,4.04607 -0.83815,5.46242 -0.55883,1.36574 -1.3272,2.40319 -2.30517,3.11136 -0.93139,0.65757 -2.02606,0.98589 -3.28342,0.98589 -1.90937,0 -3.46952,-0.75896 -4.68034,-2.27645 -1.21082,-1.51749 -1.81645,-3.94472 -1.81645,-7.28322 0,-2.27625 0.28018,-4.09756 0.83901,-5.46332 0.55885,-1.41632 1.32721,-2.45377 2.30516,-3.11134 0.97795,-0.6576 2.09523,-0.9859 3.35262,-0.9859 z"
         inkscape:export-filename="logo-final-v2.png"
         inkscape:export-xdpi="96"
         inkscape:export-ydpi="96" /><path
         style="fill:url(#linearGradient146);fill-opacity:1;stroke:none;stroke-width:7.27124;stroke-linejoin:round;stroke-miterlimit:6.2;paint-order:stroke fill markers"
         d="m 196.10433,89.537891 -0.91837,27.417329 c 55.71759,-14.65733 98.07988,1.47063 132.82518,27.1615 C 293.76532,105.49829 251.20161,79.49135 196.10433,89.537891 Z"
         id="path129"
         sodipodi:nodetypes="cccc"
         inkscape:export-filename="logo-r1.svg"
         inkscape:export-xdpi="96"
         inkscape:export-ydpi="96" /><g
         id="g132"
         transform="matrix(1.9593269,0,0,2.0617678,-20.892587,-379.84774)"
         inkscape:export-filename="logo.svg"
         inkscape:export-xdpi="96"
         inkscape:export-ydpi="96"><g
           id="g131"><g
             id="g130"><g
               id="g129"
               transform="matrix(1.0365236,0,0,1.0365236,-4.2598736,-11.916753)"><path
                 id="path11-1"
                 style="fill:#ff66f5;fill-opacity:1;stroke:none;stroke-width:1.27281;stroke-dasharray:none;stroke-opacity:1;paint-order:normal"
                 d="m 102.24741,239.05815 a 7.0004633,7.0004633 0 0 0 -6.154841,7.75441 l 6.954621,-0.79978 z m 0.79978,6.95463 0.79978,6.95464 a 7.0004633,7.0004633 0 0 0 6.15485,-7.75442 z" /><path
                 id="path12-0"
                 style="fill:#ffa3f9;fill-opacity:1;stroke:none;stroke-width:1.27281;stroke-dasharray:none;stroke-opacity:1;paint-order:normal"
                 d="m 102.24741,239.05815 0.79978,6.95463 6.95463,-0.79978 a 7.0004633,7.0004633 0 0 0 -7.75441,-6.15485 z m 0.79978,6.95463 -6.954621,0.79978 a 7.0004633,7.0004633 0 0 0 7.754401,6.15486 z" /><circle
                 style="fill:none;fill-opacity:1;stroke:url(#linearGradient15-7);stroke-width:1.27281;stroke-dasharray:none;stroke-opacity:1;paint-order:normal"
                 id="path14-3"
                 cx="74.28006"
                 cy="256.18851"
                 r="6.364058"
                 transform="rotate(-6.5601778)" /><circle
                 style="fill:url(#linearGradient17-6);stroke:none;stroke-width:1.2728;stroke-dasharray:none;stroke-opacity:1;paint-order:normal"
                 id="path15-9-9"
                 cx="74.28006"
                 cy="256.23901"
                 r="7.0646853"
                 transform="rotate(-6.5601778)" /></g></g></g></g><path
         id="path142"
         style="font-weight:900;font-size:21.1667px;font-family:Nunito;-inkscape-font-specification:'Nunito, Heavy';fill:#000000;fill-opacity:0.0705882;stroke:none;stroke-width:13.2995;stroke-linecap:round;stroke-linejoin:bevel;stroke-miterlimit:6.2;stroke-dasharray:none;stroke-opacity:0.960187;paint-order:stroke fill markers"
         d="m 39.883229,135.27998 -0.967297,12.93394 0.20257,0.0172 0.764727,-10.22227 8.496387,0.70344 c 2.460573,0.20386 4.299044,0.9146 5.51597,2.13168 0.80017,0.76472 1.272852,1.75491 1.480502,2.92838 0.03659,-0.24435 0.09343,-0.46804 0.113029,-0.73009 0.158436,-2.11794 -0.372898,-3.76018 -1.593597,-4.92683 -1.216926,-1.21708 -3.055397,-1.92782 -5.515969,-2.13167 z m 221.682371,3.99866 c -0.10016,0.38737 -0.18989,0.77692 -0.20847,1.18042 0,1.01166 0.23319,1.94766 0.69888,2.80758 0.51226,0.85993 1.21012,1.46673 2.09498,1.82082 0.88481,0.35407 1.956,0.27846 3.21335,-0.22737 1.7231,-0.70817 3.28329,-1.18864 4.68034,-1.44156 1.3971,-0.30348 2.65449,-0.45564 3.77214,-0.45564 2.09562,0 3.5627,0.37993 4.40097,1.13867 0.58056,0.49785 0.95094,1.24775 1.15046,2.20273 h 0.17642 v -1.06228 c 0,-1.821 -0.44207,-3.11025 -1.32688,-3.869 -0.83827,-0.75873 -2.30535,-1.13867 -4.40097,-1.13867 -1.11767,0 -2.37504,0.15212 -3.77214,0.45565 -1.39707,0.25293 -2.95726,0.73338 -4.68035,1.44154 -1.25736,0.50584 -2.32855,0.58147 -3.21336,0.22738 -0.88484,-0.35407 -1.58272,-0.96089 -2.09496,-1.8208 -0.2178,-0.40218 -0.3744,-0.82404 -0.49041,-1.25947 z m -21.37598,2.9346 c -1.25739,0 -2.37552,0.32833 -3.35348,0.98591 -0.97795,0.65759 -1.7463,1.69506 -2.30514,3.11135 -0.55885,1.36575 -0.83817,3.18621 -0.83817,5.46244 0,0.57028 0.0423,1.07712 0.0775,1.59431 0.0841,-1.71888 0.30484,-3.21456 0.76051,-4.3282 0.55885,-1.41631 1.3272,-2.45377 2.30515,-3.11135 0.97796,-0.65758 2.0961,-0.9859 3.35349,-0.9859 1.86277,0 3.39945,0.75894 4.61028,2.27644 1.00463,1.21714 1.56768,3.13444 1.73879,5.67471 0.019,-0.38315 0.0776,-0.70935 0.0776,-1.12001 0,-3.38908 -0.60564,-5.81633 -1.81645,-7.28323 -1.21083,-1.51752 -2.7475,-2.27647 -4.61027,-2.27647 z m -20.22722,1.1973 c -0.20075,1.04798 -0.63316,1.90622 -1.32434,2.55445 -0.97449,0.95374 -2.3773,1.4309 -4.20936,1.4309 h -4.17054 v 2.72854 h 4.17054 c 1.83206,0 3.23487,-0.47717 4.20936,-1.4309 0.97449,-0.91395 1.46107,-2.22513 1.46107,-3.93382 0,-0.48499 -0.0546,-0.92795 -0.13671,-1.34917 z m -29.55164,0.0138 c -0.0803,0.41697 -0.13164,0.85575 -0.13164,1.33495 0,1.74845 0.48741,3.0794 1.46191,3.99336 0.9745,0.91398 2.37814,1.37136 4.21021,1.37136 h 1.91857 v -2.72853 h -1.91857 c -1.83207,0 -3.23571,-0.45739 -4.21021,-1.37138 -0.69451,-0.65138 -1.13065,-1.52459 -1.33024,-2.59976 z M 67.696919,143.7281 c -0.258873,3.35373 -1.171714,6.22957 -2.74406,8.62173 -1.531202,2.35943 -3.647363,4.11198 -6.34907,5.25814 -0.843783,0.34993 -1.749975,0.6199 -2.706084,0.82691 0.815427,0.33334 1.570859,0.77896 2.262934,1.34385 0.192836,0.1504 0.366218,0.33549 0.548649,0.50449 2.648671,-1.14684 4.73344,-2.87787 6.243571,-5.20484 1.581395,-2.40596 2.498908,-5.29906 2.751655,-8.6777 0.07008,-0.93707 0.02564,-1.80148 -0.0081,-2.67258 z m 211.194001,8.94949 c -1.81622,0 -3.33028,0.1521 -4.54108,0.45564 -1.16425,0.25292 -2.02572,0.68269 -2.58455,1.28967 -0.55883,0.55641 -0.83814,1.28958 -0.83814,2.20007 0,0.52302 0.10017,0.99144 0.25068,1.43266 0.13901,-0.33728 0.32632,-0.64418 0.58746,-0.90419 0.55883,-0.60699 1.4203,-1.03674 2.58455,-1.28966 1.2108,-0.30352 2.72486,-0.45565 4.54108,-0.45565 h 2.50012 c 0.0749,-0.4411 0.15369,-0.88056 0.15369,-1.3625 v -1.36604 z m -19.82544,0.44498 c -0.12953,3.42135 -0.72076,6.45336 -1.83164,9.0454 -1.25737,2.93384 -3.02728,5.1849 -5.30918,6.75297 -2.23534,1.5681 -4.84321,2.35196 -7.82366,2.35196 -2.65447,0 -5.02912,-0.68333 -7.12476,-2.04908 -1.48233,-1.02461 -2.59386,-2.27711 -3.34504,-3.75174 -0.16202,1.65115 -0.67266,2.95649 -1.54464,3.90364 -1.02455,1.16342 -2.51514,1.74529 -4.47102,1.74529 -2.00252,0 -3.53919,-0.58187 -4.61031,-1.74529 -1.02449,-1.16344 -1.53704,-2.85753 -1.53704,-5.08317 v 2.72856 c 0,2.22563 0.51255,3.91971 1.53704,5.08314 1.07112,1.16342 2.60779,1.74531 4.61031,1.74531 1.95588,0 3.44647,-0.58189 4.47102,-1.74531 0.87198,-0.94714 1.38255,-2.25247 1.54464,-3.90363 0.75118,1.47464 1.86271,2.72714 3.34504,3.75175 2.09564,1.36575 4.47029,2.04908 7.12476,2.04908 2.98045,0 5.58832,-0.78387 7.82366,-2.35197 2.2819,-1.56805 4.05181,-3.81914 5.30918,-6.75296 1.25736,-2.93381 1.8865,-6.3994 1.8865,-10.39545 0,-0.47726 -0.0378,-0.91774 -0.0549,-1.3785 z m -102.04093,1.87765 c -1.25739,0 -2.37554,0.32833 -3.35348,0.9859 -0.97797,0.65757 -1.74631,1.69501 -2.30515,3.11136 -0.55882,1.36575 -0.83816,3.18618 -0.83816,5.46242 0,0.5703 0.0423,1.07715 0.0776,1.59431 0.0841,-1.71885 0.30483,-3.21454 0.7605,-4.32819 0.55885,-1.41635 1.32718,-2.45378 2.30514,-3.11134 0.97795,-0.65759 2.0961,-0.9859 3.35349,-0.9859 1.86276,0 3.39947,0.75804 4.61028,2.27556 1.00465,1.21712 1.56768,3.1351 1.73879,5.67558 0.019,-0.38313 0.0776,-0.70935 0.0776,-1.12002 0,-3.38907 -0.60563,-5.81721 -1.81643,-7.28411 -1.21083,-1.51751 -2.74752,-2.27557 -4.61029,-2.27557 z m -74.691515,0.57999 c -1.689981,0 -3.083866,0.71371 -4.182356,2.14145 -1.09849,1.38011 -1.647612,3.66477 -1.647612,6.85334 0,0.41098 0.05472,0.73925 0.07431,1.12091 0.162847,-2.34375 0.673601,-4.11529 1.573343,-5.24571 1.098489,-1.42772 2.492374,-2.14144 4.182356,-2.14144 1.140745,0 2.154774,0.30947 3.042019,0.92816 0.88723,0.61868 1.584582,1.59407 2.091596,2.92662 0.407525,1.03287 0.60544,2.41931 0.685377,4.00578 0.03627,-0.5139 0.07514,-1.02389 0.07514,-1.59432 0,-2.14158 -0.253532,-3.85507 -0.760514,-5.14 -0.507013,-1.33255 -1.204365,-2.30795 -2.091595,-2.92663 -0.887245,-0.61868 -1.901274,-0.92816 -3.042019,-0.92816 z m -44.153132,2.46653 -1.012885,13.53969 c -0.166,2.2188 -0.829882,3.91449 -1.991993,5.08671 -1.158336,1.1218 -2.805573,1.59448 -4.94117,1.41757 -2.042741,-0.1693 -3.575658,-0.90553 -4.599324,-2.20807 -0.68461,-0.90816 -1.077958,-2.0289 -1.228114,-3.32719 l -0.05227,0.69813 c -0.165983,2.21881 0.260539,4.00464 1.280447,5.3576 1.023665,1.30256 2.556583,2.03886 4.599323,2.20809 2.135598,0.1769 3.782835,-0.29577 4.941171,-1.41759 1.16211,-1.17221 1.825992,-2.8679 1.991992,-5.08671 l 1.012885,-13.53968 3.830381,0.31798 c 1.114204,0.0923 2.072338,0.39974 2.874045,0.92283 0.851916,0.47649 1.514492,1.29233 1.988602,2.44787 l 5.392748,13.15687 c 0.753816,1.78761 1.657299,3.13152 2.711148,4.03068 1.100287,0.90302 2.555733,1.42931 4.366356,1.57921 1.810606,0.15004 3.212477,-0.16551 4.205141,-0.94594 1.042808,-0.82693 1.638564,-1.91888 1.786891,-3.27658 0.07937,-0.73475 0.03839,-1.487 -0.0962,-2.25335 -0.226451,1.13385 -0.775818,2.07592 -1.690667,2.80139 -0.992665,0.7804 -2.394537,1.09597 -4.205143,0.94591 -1.810622,-0.14986 -3.266068,-0.67619 -4.366356,-1.57921 -1.053849,-0.89916 -1.957332,-2.24304 -2.711147,-4.03064 l -5.392748,-13.15688 c -0.474111,-1.15555 -1.136688,-1.97137 -1.988604,-2.44787 -0.801706,-0.52309 -1.759841,-0.83054 -2.874043,-0.92285 z m 221.025687,0.49739 c -0.0389,0.43656 -0.0836,0.86734 -0.0836,1.33852 0,2.37742 0.55866,4.50214 1.67632,6.37371 1.16424,1.82099 2.74797,3.26237 4.7504,4.32464 2.04907,1.06222 4.40027,1.59341 7.05471,1.59341 1.72309,0 3.25983,-0.32831 4.61031,-0.98589 1.35051,-0.65759 2.44513,-1.56867 3.2834,-2.73209 0.52112,-0.72324 0.92494,-1.5345 1.21209,-2.43367 0.10927,1.82201 0.58982,3.24095 1.4425,4.25535 1.02454,1.16342 2.49164,1.74442 4.40098,1.74442 1.8628,0 3.2829,-0.581 4.26085,-1.74442 0.97798,-1.16342 1.46699,-2.85836 1.46699,-5.08404 v -2.72854 c 0,2.22566 -0.48901,3.92063 -1.46699,5.08405 -0.97795,1.16342 -2.39805,1.74441 -4.26085,1.74441 -1.90934,0 -3.37644,-0.58099 -4.40098,-1.74441 -0.85268,-1.01443 -1.33323,-2.43336 -1.4425,-4.25537 -0.28715,0.89918 -0.69097,1.71044 -1.21209,2.43368 -0.83827,1.16341 -1.93289,2.07449 -3.2834,2.73208 -1.35048,0.65758 -2.88722,0.98591 -4.61031,0.98591 -2.65444,0 -5.00564,-0.53119 -7.05471,-1.59343 -2.00243,-1.06226 -3.58616,-2.50364 -4.7504,-4.32464 -0.89388,-1.49682 -1.41383,-3.16324 -1.59276,-4.98368 z m -140.25186,0.10932 c -1.25738,0 -2.37466,0.3283 -3.35264,0.98591 -0.97792,0.65757 -1.74629,1.69501 -2.30514,3.11135 -0.55882,1.36574 -0.83901,3.18705 -0.83901,5.4633 0,0.5703 0.0423,1.07719 0.0776,1.59431 0.0843,-1.71922 0.30565,-3.21536 0.76137,-4.32907 0.55884,-1.41635 1.3272,-2.45379 2.30514,-3.11135 0.97798,-0.6576 2.09526,-0.98591 3.35264,-0.98591 1.86277,0 3.39946,0.75895 4.61028,2.27646 1.00463,1.21714 1.56768,3.13509 1.73879,5.67558 0.019,-0.38309 0.0775,-0.70934 0.0775,-1.12002 0,-3.38907 -0.60563,-5.81721 -1.81644,-7.2841 -1.21081,-1.51753 -2.7475,-2.27646 -4.61028,-2.27646 z m 175.09832,0.68037 v 2.72853 c 0,5.26067 1.04766,9.2058 3.1433,11.83613 2.14218,2.57975 5.44882,3.86987 9.91948,3.86987 0.60541,0 1.25718,-0.0507 1.9557,-0.15193 0.69855,-0.10111 1.23458,-0.17764 1.60711,-0.22827 1.35054,-0.25295 2.35122,-0.80903 3.00317,-1.66893 0.652,-0.91051 0.97829,-2.25047 0.97829,-4.02087 0,-0.6855 -0.0592,-1.181 -0.10716,-1.70979 -0.11139,1.23703 -0.36141,2.2904 -0.87107,3.00211 -0.65197,0.85991 -1.65265,1.416 -3.00318,1.66893 -0.37253,0.0507 -0.90856,0.12719 -1.60711,0.22827 -0.69852,0.10121 -1.35028,0.15194 -1.95571,0.15194 -4.47064,0 -7.77729,-1.29012 -9.91947,-3.86987 -2.09565,-2.63032 -3.1433,-6.57546 -3.1433,-11.83612 z m 20.81638,4.56623 v 2.72853 c 0,5.26067 1.04848,9.20668 3.14415,11.83701 2.14217,2.57977 5.44794,3.869 9.91863,3.869 0.60539,0 1.25799,-0.0507 1.95656,-0.15193 0.69852,-0.101 1.2337,-0.17672 1.60625,-0.22737 1.35049,-0.25293 2.35204,-0.80901 3.00403,-1.66893 0.65195,-0.91049 0.97743,-2.25136 0.97743,-4.02178 0,-0.68536 -0.0592,-1.18029 -0.10714,-1.70888 -0.11123,1.23682 -0.36073,2.29057 -0.87024,3.0021 -0.65199,0.85992 -1.65354,1.41601 -3.00404,1.66892 -0.37254,0.0507 -0.90772,0.12633 -1.60624,0.22738 -0.69856,0.10121 -1.35116,0.15194 -1.95656,0.15194 -4.47068,0 -7.77646,-1.28926 -9.91863,-3.86902 -2.09566,-2.63031 -3.14415,-6.57633 -3.14415,-11.83699 z m -138.96803,2.00998 c -0.12952,3.42134 -0.7207,6.45335 -1.83162,9.0454 -1.25736,2.93383 -3.02729,5.18403 -5.30918,6.7521 -2.23534,1.56809 -4.84323,2.35285 -7.82365,2.35285 -2.65447,0 -5.02914,-0.68334 -7.12477,-2.04908 -1.48217,-1.02449 -2.59385,-2.27736 -3.34503,-3.75178 -0.16203,1.65119 -0.67266,2.9565 -1.54465,3.90366 -1.02452,1.16341 -2.51511,1.74532 -4.47104,1.74532 -2.00249,0 -3.53922,-0.58191 -4.61029,-1.74532 -1.02455,-1.16342 -1.53705,-2.85841 -1.53705,-5.08407 v 2.72854 c 0,2.22569 0.5125,3.92065 1.53705,5.08406 1.07107,1.16342 2.6078,1.74534 4.61029,1.74534 1.95593,0 3.44652,-0.58192 4.47104,-1.74534 0.87199,-0.94713 1.38255,-2.25245 1.54465,-3.90363 0.75118,1.47442 1.86286,2.72728 3.34503,3.75177 2.09563,1.36573 4.4703,2.04906 7.12477,2.04906 2.98042,0 5.58831,-0.78475 7.82365,-2.35283 2.28189,-1.56808 4.05182,-3.81825 5.30918,-6.7521 1.25739,-2.93384 1.88648,-6.39939 1.88648,-10.39548 0,-0.47725 -0.0377,-0.9177 -0.0549,-1.37847 z m -110.689257,0.0154 c -0.01748,0.45974 -0.05227,0.90123 -0.05227,1.37848 0,3.75961 0.570193,7.01969 1.710923,9.77995 1.140745,2.76025 2.746003,4.87797 4.816251,6.35328 2.027975,1.47532 4.394596,2.2125 7.098589,2.2125 2.408224,0 4.562638,-0.64242 6.463863,-1.92738 1.344672,-0.96386 2.352918,-2.14253 3.034425,-3.52971 0.147003,1.55356 0.61088,2.78157 1.402002,3.6727 0.929502,1.09458 2.281245,1.64227 4.055738,1.64227 1.816733,0 3.21145,-0.54769 4.183194,-1.64227 0.929482,-1.09458 1.393556,-2.68896 1.393556,-4.78295 v -2.72855 c 0,2.09398 -0.464074,3.68837 -1.393556,4.78295 -0.971744,1.09459 -2.366461,1.64229 -4.183194,1.64229 -1.774493,0 -3.126236,-0.5477 -4.055738,-1.64229 -0.791122,-0.89113 -1.254999,-2.11915 -1.402002,-3.67271 -0.681507,1.38718 -1.689753,2.56586 -3.034425,3.52971 -1.901225,1.28497 -4.055639,1.92739 -6.463863,1.92739 -2.703993,0 -5.070614,-0.73717 -7.098589,-2.21249 -2.070248,-1.47533 -3.675506,-3.59304 -4.816251,-6.3533 -0.999492,-2.4185 -1.534877,-5.24416 -1.658589,-8.42987 z m 132.658637,1.66269 v 2.72855 c 0,2.36853 0.55689,4.18218 1.67039,5.442 1.0671,1.25981 2.59846,1.89007 4.59344,1.89007 1.94859,0 3.45713,-0.63027 4.52418,-1.89007 1.06711,-1.25982 1.60036,-3.07347 1.60036,-5.442 v -2.72855 c 0,2.36853 -0.53325,4.18217 -1.60036,5.44199 -1.06705,1.25981 -2.57559,1.89009 -4.52418,1.89009 -1.99498,0 -3.52634,-0.63026 -4.59344,-1.89009 -1.1135,-1.25982 -1.67039,-3.07346 -1.67039,-5.44199 z m -60.04018,1.97624 c -0.12953,3.42118 -0.72072,6.45246 -1.83162,9.04452 -1.25737,2.93385 -3.02642,5.18491 -5.30835,6.75298 -2.23532,1.56809 -4.84319,2.35195 -7.82366,2.35195 -2.65444,0 -5.02997,-0.68334 -7.1256,-2.04905 -1.48267,-1.02486 -2.59385,-2.27759 -3.34504,-3.75266 -0.16202,1.65157 -0.67249,2.95723 -1.54464,3.90452 -1.02452,1.16341 -2.51509,1.74531 -4.47102,1.74531 -2.00249,0 -3.53921,-0.5819 -4.61031,-1.74531 -1.02453,-1.1634 -1.53619,-2.85751 -1.53619,-5.08315 v 2.72854 c 0,2.22565 0.51166,3.91975 1.53619,5.08315 1.0711,1.16342 2.60782,1.74533 4.61031,1.74533 1.95593,0 3.4465,-0.58191 4.47102,-1.74533 0.87215,-0.94726 1.38265,-2.25294 1.54464,-3.9045 0.75119,1.47506 1.86237,2.72778 3.34504,3.75263 2.09563,1.36574 4.47116,2.04907 7.1256,2.04907 2.98047,0 5.58834,-0.78385 7.82366,-2.35196 2.28193,-1.56805 4.05098,-3.81913 5.30835,-6.75295 1.25738,-2.93386 1.88649,-6.39853 1.88649,-10.3946 0,-0.47725 -0.0377,-0.9177 -0.0549,-1.37849 z m 39.39007,2.41767 v 2.72855 c 0,2.37741 0.53517,4.19873 1.60625,5.46333 1.07109,1.26458 2.58515,1.89719 4.54109,1.89719 2.04904,0 3.60842,-0.63261 4.6795,-1.89719 1.0711,-1.2646 1.6071,-3.08592 1.6071,-5.46333 v -2.72854 c 0,2.37742 -0.536,4.19872 -1.6071,5.46331 -1.07108,1.26459 -2.63046,1.8972 -4.6795,1.8972 -1.95594,0 -3.47,-0.63261 -4.54109,-1.8972 -1.07108,-1.26459 -1.60625,-3.08589 -1.60625,-5.46331 z" /><path
         id="path145"
         style="font-weight:900;font-size:21.1667px;font-family:Nunito;-inkscape-font-specification:'Nunito, Heavy';fill:#000000;fill-opacity:0.0705882;stroke:none;stroke-width:13.2995;stroke-linecap:round;stroke-linejoin:bevel;stroke-miterlimit:6.2;stroke-dasharray:none;stroke-opacity:0.960187;paint-order:stroke fill markers"
         d="m 39.881938,132.52178 -0.967297,12.93394 0.202571,0.0172 0.764726,-10.22227 8.49637,0.70347 c 2.460575,0.20384 4.299062,0.91458 5.51597,2.13165 0.800172,0.76475 1.272852,1.75493 1.480502,2.9284 0.03659,-0.24437 0.09343,-0.46805 0.11303,-0.7301 0.158437,-2.11793 -0.372898,-3.76019 -1.593596,-4.92683 -1.216926,-1.21708 -3.055397,-1.92783 -5.515969,-2.13168 z m 221.682372,3.99867 c -0.10017,0.38738 -0.18989,0.77692 -0.20848,1.18041 0,1.01166 0.2332,1.94768 0.69889,2.80759 0.51226,0.85992 1.21013,1.46672 2.09498,1.82082 0.88481,0.35409 1.95601,0.27845 3.21336,-0.22738 1.72308,-0.70816 3.28329,-1.18864 4.68036,-1.44154 1.39709,-0.30348 2.65446,-0.45566 3.77212,-0.45566 2.09561,0 3.56271,0.37994 4.40098,1.13867 0.58057,0.49785 0.95092,1.24777 1.15045,2.20274 h 0.17644 v -1.06228 c 0,-1.821 -0.44208,-3.11025 -1.32689,-3.869 -0.83827,-0.75874 -2.30537,-1.13866 -4.40098,-1.13866 -1.11766,0 -2.37503,0.1521 -3.77212,0.45563 -1.39707,0.25293 -2.95728,0.73338 -4.68036,1.44157 -1.25735,0.50583 -2.32855,0.58144 -3.21336,0.22736 -0.88485,-0.35408 -1.58272,-0.96089 -2.09498,-1.82081 -0.21779,-0.40218 -0.37439,-0.82402 -0.49041,-1.25946 z m -21.37598,2.93461 c -1.25738,0 -2.37552,0.32831 -3.35348,0.9859 -0.97795,0.65758 -1.74631,1.69505 -2.30514,3.11134 -0.55883,1.36576 -0.83816,3.18621 -0.83816,5.46244 0,0.57028 0.0423,1.07714 0.0776,1.59431 0.0841,-1.71886 0.30482,-3.21456 0.76051,-4.3282 0.55884,-1.4163 1.3272,-2.45376 2.30515,-3.11134 0.97796,-0.65759 2.0961,-0.98591 3.35348,-0.98591 1.86277,0 3.39945,0.75894 4.61028,2.27646 1.00464,1.21712 1.56768,3.13442 1.73879,5.67469 0.019,-0.38314 0.0776,-0.70934 0.0776,-1.12001 0,-3.38907 -0.60564,-5.81633 -1.81644,-7.28323 -1.21083,-1.51752 -2.74751,-2.27645 -4.61028,-2.27645 z m -20.22722,1.19729 c -0.20076,1.04798 -0.63314,1.90621 -1.32435,2.55445 -0.97448,0.95373 -2.37729,1.43089 -4.20934,1.43089 h -4.17055 v 2.72854 h 4.17055 c 1.83205,0 3.23486,-0.47716 4.20934,-1.43089 0.9745,-0.91394 1.46109,-2.22513 1.46109,-3.93383 0,-0.48498 -0.0546,-0.92794 -0.13672,-1.34916 z m -29.55164,0.0138 c -0.0804,0.41695 -0.13165,0.85573 -0.13165,1.33494 0,1.74846 0.48742,3.0794 1.46191,3.99335 0.97451,0.91399 2.37814,1.37136 4.21023,1.37136 h 1.91856 v -2.72853 h -1.91856 c -1.83207,0 -3.2357,-0.45738 -4.21023,-1.37137 -0.69449,-0.65138 -1.13064,-1.5246 -1.33023,-2.59975 z M 67.695662,140.9699 c -0.258873,3.35372 -1.17173,6.22957 -2.744078,8.62174 -1.531201,2.35941 -3.647362,4.11197 -6.34907,5.25814 -0.843797,0.34993 -1.749991,0.61988 -2.706084,0.8269 0.03283,1.42746 -0.04345,1.46012 0.0098,2.75752 2.315824,-0.1962 7.155938,-2.70297 9.045617,-6.11402 1.581394,-2.40597 2.498907,-5.29906 2.751654,-8.6777 0.07008,-0.93708 0.02564,-1.80149 -0.0081,-2.67258 z m 211.193988,8.94949 c -1.81621,0 -3.33029,0.15211 -4.54108,0.45564 -1.16425,0.25291 -2.02572,0.68268 -2.58455,1.28966 -0.55883,0.55642 -0.83814,1.28958 -0.83814,2.20007 0,0.52303 -0.005,0.52247 0.005,2.73655 -0.0504,-2.82418 3.1737,-3.43872 3.43041,-3.47512 1.2108,-0.30352 2.66058,-0.45231 4.51224,-0.44984 l 2.67064,0.003 c 0.0147,-0.46623 8e-5,-0.91254 8e-5,-1.39448 v -1.36604 z m -19.82545,0.44499 c -0.12953,3.42133 -0.72075,6.45334 -1.83162,9.04539 -1.25739,2.93383 -3.0273,5.1849 -5.30919,6.75296 -2.23534,1.5681 -4.84321,2.35198 -7.82366,2.35198 -2.65447,0 -5.02913,-0.68334 -7.12476,-2.04909 -1.48233,-1.0246 -2.59385,-2.27711 -3.34504,-3.75175 -0.16202,1.65116 -0.67266,2.95649 -1.54464,3.90364 -1.02454,1.16342 -2.51516,1.7453 -4.47103,1.7453 -2.0025,0 -3.53918,-0.58188 -4.6103,-1.7453 -1.0245,-1.16344 -1.53705,-2.85752 -1.53705,-5.08315 v 2.72854 c 0,2.22563 0.51255,3.91972 1.53705,5.08315 1.07114,1.16342 2.6078,1.74531 4.6103,1.74531 1.95587,0 3.44649,-0.58189 4.47103,-1.74531 0.87198,-0.94714 1.38254,-2.25248 1.54464,-3.90362 0.75119,1.47463 1.86271,2.72712 3.34504,3.75173 2.09563,1.36575 4.47029,2.04909 7.12476,2.04909 2.98045,0 5.58832,-0.78386 7.82366,-2.35196 2.28189,-1.56807 4.0518,-3.81914 5.30919,-6.75297 1.25734,-2.93381 1.88649,-6.39938 1.88649,-10.39546 0,-0.47725 -0.0377,-0.91773 -0.0549,-1.37848 z m -102.04094,1.87765 c -1.2574,0 -2.37554,0.32831 -3.35349,0.9859 -0.97797,0.65756 -1.7463,1.695 -2.30514,3.11134 -0.55881,1.36576 -0.83814,3.18619 -0.83814,5.46242 0,0.5703 0.0423,1.07715 0.0775,1.59432 0.0841,-1.71886 0.30483,-3.21455 0.76052,-4.32818 0.55884,-1.41636 1.32718,-2.45379 2.30515,-3.11136 0.97795,-0.65758 2.09608,-0.9859 3.35348,-0.9859 1.86276,0 3.39946,0.75804 4.61028,2.27556 1.00463,1.21714 1.56769,3.13511 1.73879,5.67558 0.019,-0.38313 0.0776,-0.70933 0.0776,-1.12002 0,-3.38906 -0.60565,-5.8172 -1.81645,-7.2841 -1.21081,-1.51751 -2.74752,-2.27556 -4.61027,-2.27556 z M 82.331778,152.822 c -1.689983,0 -3.083868,0.71373 -4.182373,2.14145 -1.098491,1.38012 -1.647614,3.66478 -1.647614,6.85335 0,0.41097 0.05472,0.73924 0.07431,1.1209 0.162847,-2.34375 0.673601,-4.11529 1.573344,-5.2457 1.098489,-1.42773 2.492374,-2.14145 4.182356,-2.14145 1.140745,0 2.154773,0.30949 3.04202,0.92817 0.88723,0.61867 1.584579,1.59407 2.091595,2.92661 0.407525,1.03288 0.60544,2.41933 0.685378,4.00578 0.03626,-0.5139 0.07514,-1.02388 0.07514,-1.59431 0,-2.14159 -0.253531,-3.85508 -0.760512,-5.14001 -0.507015,-1.33255 -1.204365,-2.30794 -2.091596,-2.92661 -0.887246,-0.6187 -1.901274,-0.92818 -3.042019,-0.92818 z m -44.153166,2.46653 -1.012885,13.53969 c -0.165999,2.21881 -0.829882,3.91449 -1.991992,5.08672 -1.158337,1.12179 -2.805573,1.59448 -4.941171,1.41757 -2.042741,-0.16931 -3.575658,-0.90553 -4.599322,-2.20807 -0.684612,-0.90816 -1.077959,-2.02891 -1.228115,-3.32719 l -0.05227,0.69812 c -0.165982,2.21881 0.260539,4.00466 1.280447,5.35761 1.023666,1.30253 2.556583,2.03884 4.599324,2.20806 2.135598,0.17692 3.782834,-0.29576 4.941171,-1.41756 1.16211,-1.17221 1.825993,-2.8679 1.991991,-5.08671 l 1.012886,-13.53968 3.830381,0.31797 c 1.114203,0.0923 2.072337,0.39975 2.874044,0.92284 0.851916,0.47649 1.514492,1.29232 1.988619,2.44787 l 5.392748,13.15688 c 0.753817,1.7876 1.657299,3.13149 2.711148,4.03064 1.100287,0.90302 2.555733,1.4293 4.366372,1.5792 1.810607,0.15005 3.212478,-0.16551 4.205142,-0.94592 1.042808,-0.82693 1.638564,-1.91887 1.78689,-3.27655 0.07937,-0.73475 0.03839,-1.48702 -0.0962,-2.25335 -0.22645,1.13384 -0.775818,2.0759 -1.690669,2.80135 -0.992663,0.78042 -2.394536,1.09598 -4.205142,0.94594 -1.810639,-0.14989 -3.266085,-0.67618 -4.366372,-1.57921 -1.05385,-0.89916 -1.957331,-2.24304 -2.711147,-4.03065 l -5.392749,-13.15687 c -0.474127,-1.15554 -1.136702,-1.97138 -1.988619,-2.44788 -0.801706,-0.52309 -1.759841,-0.83054 -2.874044,-0.92283 z m 221.025708,0.49741 c -0.0389,0.43654 -0.0836,0.86732 -0.0836,1.33851 0,2.37741 0.55866,4.50213 1.67633,6.3737 1.16423,1.821 2.74796,3.26238 4.75039,4.32465 2.04908,1.06223 4.40028,1.59341 7.05472,1.59341 1.72309,0 3.25981,-0.32832 4.6103,-0.9859 1.3505,-0.65758 2.44513,-1.56866 3.28339,-2.73208 0.52112,-0.72325 0.92493,-1.53451 1.2121,-2.43368 0.10927,1.82202 0.58982,3.24095 1.44251,4.25535 1.02453,1.16342 2.49163,1.74443 4.40096,1.74443 1.86282,0 3.28292,-0.58101 4.26086,-1.74443 0.97799,-1.1634 1.46699,-2.85836 1.46699,-5.08404 v -2.72854 c 0,2.22566 -0.489,3.92063 -1.46699,5.08405 -0.97794,1.16342 -2.39804,1.74441 -4.26086,1.74441 -1.90933,0 -3.37643,-0.58099 -4.40096,-1.74441 -0.85269,-1.01442 -1.33326,-2.43335 -1.44251,-4.25536 -0.28714,0.89918 -0.69097,1.71043 -1.2121,2.43367 -0.83826,1.16342 -1.93289,2.0745 -3.28339,2.73209 -1.35051,0.65758 -2.88723,0.9859 -4.6103,0.9859 -2.65444,0 -5.00564,-0.53119 -7.05472,-1.59342 -2.00243,-1.06227 -3.58616,-2.50364 -4.75039,-4.32464 -0.89388,-1.49682 -1.41383,-3.16325 -1.59277,-4.98367 z m -140.25184,0.10931 c -1.25739,0 -2.37466,0.3283 -3.35264,0.9859 -0.97794,0.65757 -1.7463,1.69501 -2.30514,3.11135 -0.55883,1.36575 -0.83902,3.18706 -0.83902,5.4633 0,0.57032 0.0423,1.0772 0.0776,1.59432 0.0843,-1.71923 0.30564,-3.21536 0.76136,-4.32908 0.55884,-1.41632 1.32721,-2.45378 2.30514,-3.11134 0.97798,-0.6576 2.09526,-0.9859 3.35265,-0.9859 1.86277,0 3.39946,0.75893 4.61027,2.27645 1.00464,1.21713 1.56767,3.13508 1.73879,5.67558 0.019,-0.3831 0.0776,-0.70934 0.0776,-1.12003 0,-3.38907 -0.60564,-5.81721 -1.81644,-7.28409 -1.21082,-1.51752 -2.7475,-2.27646 -4.61028,-2.27646 z m 175.09831,0.68036 v 2.72854 c 0,5.26066 1.04766,9.20581 3.1433,11.83612 2.14217,2.57975 5.44881,3.86987 9.91947,3.86987 0.60543,0 1.2572,-0.0507 1.95571,-0.15193 0.69854,-0.101 1.23455,-0.17764 1.60711,-0.22827 1.35052,-0.25293 2.35121,-0.80902 3.00317,-1.66892 0.65198,-0.9105 0.97827,-2.25048 0.97827,-4.02088 0,-0.68549 -0.0592,-1.18099 -0.10715,-1.70979 -0.11139,1.23704 -0.36142,2.2904 -0.87108,3.00212 -0.65196,0.8599 -1.65263,1.41599 -3.00317,1.66892 -0.37254,0.0507 -0.90857,0.12719 -1.60711,0.22828 -0.69853,0.10121 -1.35029,0.15194 -1.9557,0.15194 -4.47066,0 -7.7773,-1.29013 -9.91948,-3.86988 -2.09564,-2.63032 -3.1433,-6.57545 -3.1433,-11.83612 z m 20.81638,4.56623 v 2.72854 c 0,5.26067 1.04849,9.2067 3.14416,11.837 2.14216,2.57975 5.44793,3.869 9.91861,3.869 0.60539,0 1.25799,-0.0506 1.95654,-0.15194 0.69855,-0.1011 1.23371,-0.17672 1.60628,-0.22737 1.35048,-0.25291 2.35203,-0.80901 3.00403,-1.66892 0.65196,-0.91049 0.97743,-2.25135 0.97743,-4.02177 0,-0.68535 -0.0592,-1.18029 -0.10716,-1.70889 -0.11122,1.23684 -0.36072,2.29058 -0.87024,3.0021 -0.65199,0.85992 -1.65352,1.41602 -3.00403,1.66893 -0.37253,0.0507 -0.90772,0.12634 -1.60623,0.22738 -0.69857,0.10121 -1.35117,0.15194 -1.95655,0.15194 -4.47072,0 -7.77649,-1.28925 -9.91864,-3.869 -2.09568,-2.63032 -3.14416,-6.57633 -3.14416,-11.837 z m -138.96804,2.00998 c -0.12953,3.42134 -0.72073,6.45336 -1.83163,9.04541 -1.25738,2.93384 -3.0273,5.18401 -5.30918,6.75208 -2.23535,1.56808 -4.84322,2.35284 -7.82367,2.35284 -2.65446,0 -5.02913,-0.68334 -7.12477,-2.04907 -1.48216,-1.02449 -2.59384,-2.27734 -3.34502,-3.75175 -0.16203,1.65116 -0.67266,2.95648 -1.54465,3.90362 -1.02453,1.16342 -2.51511,1.74533 -4.47102,1.74533 -2.00249,0 -3.5392,-0.58191 -4.61031,-1.74533 -1.02453,-1.16342 -1.53703,-2.85837 -1.53703,-5.08405 v 2.72855 c 0,2.22567 0.5125,3.92063 1.53703,5.08405 1.07111,1.16342 2.60783,1.74532 4.61031,1.74532 1.95591,0 3.44649,-0.5819 4.47102,-1.74532 0.87199,-0.94715 1.38255,-2.25244 1.54465,-3.90363 0.75118,1.47442 1.86286,2.72728 3.34502,3.75178 2.09564,1.36573 4.47031,2.04905 7.12477,2.04905 2.98043,0 5.58832,-0.78475 7.82367,-2.35283 2.28188,-1.56806 4.0518,-3.81826 5.30918,-6.7521 1.25739,-2.93383 1.88649,-6.39938 1.88649,-10.39547 0,-0.47724 -0.0378,-0.91769 -0.0549,-1.37848 z m -110.689261,0.0154 c -0.01748,0.45975 -0.05226,0.90123 -0.05226,1.37848 0,3.75961 0.570194,7.0197 1.710921,9.77995 1.140746,2.76025 2.746005,4.87797 4.816252,6.35327 2.027974,1.47534 4.394596,2.21252 7.09859,2.21252 2.408223,0 4.562638,-0.64245 6.463864,-1.92741 1.344671,-0.96385 2.352917,-2.14252 3.034424,-3.5297 0.147003,1.55356 0.61088,2.78156 1.402003,3.6727 0.929501,1.09458 2.281245,1.64229 4.055737,1.64229 1.816736,0 3.211453,-0.54771 4.183185,-1.64229 0.929482,-1.09458 1.393555,-2.68897 1.393555,-4.78293 v -2.72855 c 0,2.09398 -0.464073,3.68835 -1.393555,4.78294 -0.971732,1.09457 -2.366449,1.64228 -4.183185,1.64228 -1.774492,0 -3.126236,-0.54771 -4.055737,-1.64228 -0.791123,-0.89113 -1.255,-2.11914 -1.402003,-3.6727 -0.681507,1.38719 -1.689753,2.56584 -3.034424,3.52969 -1.901226,1.28497 -4.055641,1.92739 -6.463864,1.92739 -2.703994,0 -5.070616,-0.73717 -7.09859,-2.2125 -2.070247,-1.4753 -3.675506,-3.59301 -4.816252,-6.35326 -0.999489,-2.4185 -1.53486,-5.24418 -1.658588,-8.42989 z m 132.658631,1.6627 v 2.72855 c 0,2.36852 0.5569,4.18217 1.6704,5.44199 1.0671,1.25983 2.59846,1.89008 4.59342,1.89008 1.94862,0 3.45715,-0.63027 4.5242,-1.89008 1.0671,-1.25982 1.60035,-3.07347 1.60035,-5.44199 v -2.72855 c 0,2.36853 -0.53325,4.18217 -1.60035,5.442 -1.06705,1.25981 -2.57558,1.89008 -4.5242,1.89008 -1.99496,0 -3.52632,-0.63026 -4.59342,-1.89008 -1.1135,-1.25983 -1.6704,-3.07347 -1.6704,-5.442 z m -60.04017,1.97624 c -0.12953,3.42117 -0.72072,6.45245 -1.83163,9.04452 -1.25736,2.93383 -3.02643,5.18491 -5.30833,6.75297 -2.23533,1.56808 -4.84321,2.35194 -7.82367,2.35194 -2.65445,0 -5.02997,-0.68332 -7.1256,-2.04906 -1.48267,-1.02485 -2.59385,-2.27758 -3.34504,-3.75264 -0.16204,1.65157 -0.6725,2.95723 -1.54465,3.90451 -1.02451,1.16342 -2.5151,1.74532 -4.47103,1.74532 -2.00246,0 -3.5392,-0.5819 -4.61028,-1.74532 -1.02454,-1.16341 -1.53621,-2.8575 -1.53621,-5.08316 v 2.72855 c 0,2.22564 0.51167,3.91976 1.53621,5.08315 1.07108,1.16342 2.60782,1.74533 4.61028,1.74533 1.95593,0 3.44652,-0.58191 4.47103,-1.74533 0.87215,-0.94727 1.38266,-2.25295 1.54465,-3.90451 0.75119,1.47507 1.86237,2.7278 3.34504,3.75264 2.09563,1.36573 4.47115,2.04907 7.1256,2.04907 2.98046,0 5.58834,-0.78386 7.82368,-2.35195 2.28191,-1.56807 4.05097,-3.81913 5.30833,-6.75297 1.25739,-2.93383 1.88648,-6.39851 1.88648,-10.39458 0,-0.47724 -0.0378,-0.9177 -0.0549,-1.37848 z m 39.39007,2.41767 v 2.72854 c 0,2.37742 0.53516,4.19873 1.60628,5.46332 1.07108,1.26458 2.58511,1.89719 4.54106,1.89719 2.04904,0 3.60842,-0.63261 4.6795,-1.89719 1.07111,-1.26459 1.60712,-3.0859 1.60712,-5.46332 v -2.72854 c 0,2.37742 -0.53601,4.19873 -1.60712,5.4633 -1.07108,1.26459 -2.63046,1.8972 -4.6795,1.8972 -1.95595,0 -3.46998,-0.63261 -4.54106,-1.8972 -1.07111,-1.26457 -1.60628,-3.08588 -1.60628,-5.4633 z"
         sodipodi:nodetypes="cccccccsccccccsccscccscsccscccscsccssccscccscsccscsssssssccssssccccccsccsccsccscscssscscccsccscscccscsssscscsccssccscccscsccssccscsssccccccscsccccccccccccccccccccssccsssccssscssccsssccsscscsccssccsccccscscccsccccscsccscscccsccccscscsscscccsccscscccscssssssscscccscsccscccscssscscssscssccsscscccsccscscccscsssscssssscsssc" /><text
         xml:space="preserve"
         style="font-style:normal;font-variant:normal;font-weight:900;font-stretch:normal;font-size:6.42591px;font-family:Nunito;-inkscape-font-specification:'Nunito, Heavy';font-variant-ligatures:normal;font-variant-caps:normal;font-variant-numeric:normal;font-variant-east-asian:normal;fill:#ffffff;fill-opacity:1;stroke:none;stroke-width:2.40971;stroke-linecap:round;stroke-linejoin:bevel;stroke-miterlimit:6.2;stroke-dasharray:none;stroke-opacity:0.960187;paint-order:stroke fill markers"
         x="327.84229"
         y="134.34909"
         id="text147"
         transform="scale(0.99891149,1.0010897)"><tspan
           sodipodi:role="line"
           id="tspan147"
           style="stroke-width:2.40971"
           x="327.84229"
           y="134.34909">™</tspan></text><g
         id="g42"
         transform="matrix(2.9450036,-0.32071206,0.30634903,2.8131122,-523.85895,-137.71818)"
         inkscape:export-filename="rabbitball-chibi.png"
         inkscape:export-xdpi="96"
         inkscape:export-ydpi="96"><path
           id="path38"
           style="fill:#ffffff;fill-opacity:1;stroke:#ffc2c2;stroke-width:1.9844;stroke-linejoin:round;stroke-miterlimit:6.2;stroke-opacity:1"
           d="m 228.01267,100.19261 c -2.84299,7.0231 -0.49159,13.91461 1.82958,14.32008 2.32116,0.40549 3.0102,-6.19993 6.5761,-12.85172 4.03458,-7.526059 3.63809,-10.621835 1.31683,-11.027312 -2.32116,-0.405486 -6.45402,1.484729 -9.72251,9.558952 z"
           inkscape:transform-center-x="-7.6890333"
           inkscape:transform-center-y="-14.444952"
           inkscape:export-filename="rabbitball-idle-02.png"
           inkscape:export-xdpi="96"
           inkscape:export-ydpi="96"
           sodipodi:nodetypes="sssss" /><path
           id="path42"
           style="fill:#ffffff;fill-opacity:1;stroke:#ffc2c2;stroke-width:1.9844;stroke-linejoin:round;stroke-miterlimit:6.2;stroke-opacity:1"
           d="m 225.69847,100.19261 c -1.60732,7.43982 0.0202,13.91461 -2.30094,14.32008 -2.32116,0.40549 -6.24291,-5.22536 -6.10473,-12.85172 0.13636,-7.526059 3.66796,-9.634919 5.98922,-10.040396 2.32116,-0.405486 3.94727,1.486301 2.41645,8.572036 z"
           inkscape:transform-center-x="7.6890314"
           inkscape:transform-center-y="-14.444952"
           inkscape:export-filename="BALLS.svg"
           inkscape:export-xdpi="96"
           inkscape:export-ydpi="96"
           sodipodi:nodetypes="sssss" /></g><ellipse
         style="fill:#ffa3f9;fill-opacity:1;stroke:#ff57f6;stroke-width:4.69355;stroke-linejoin:round;stroke-miterlimit:6.2;stroke-dasharray:none;stroke-opacity:1"
         id="ellipse42"
         cx="165.58846"
         cy="124.5932"
         rx="29.92152"
         ry="29.921497"
         inkscape:export-filename="logo-final-v1.svg"
         inkscape:export-xdpi="96"
         inkscape:export-ydpi="96"
         transform="rotate(-6.2150417)" /><ellipse
         style="fill:#7b6179;fill-opacity:1;stroke:none;stroke-width:12.0593;stroke-linejoin:round;stroke-miterlimit:6.2;stroke-dasharray:none;stroke-opacity:1;paint-order:stroke fill markers"
         id="ellipse43"
         cx="169.62262"
         cy="123.44759"
         rx="6.8322372"
         ry="11.808929"
         transform="rotate(-6.2150417)" /><ellipse
         style="fill:#7b6179;fill-opacity:1;stroke:none;stroke-width:11.5346;stroke-linejoin:round;stroke-miterlimit:6.2;stroke-dasharray:none;stroke-opacity:1;paint-order:stroke fill markers"
         id="ellipse207"
         cx="151.06245"
         cy="123.69599"
         rx="6.5349298"
         ry="11.295058"
         transform="rotate(-6.2150417)"
         inkscape:export-filename="ellipse207.svg"
         inkscape:export-xdpi="96"
         inkscape:export-ydpi="96" /></g></g></svg>
